<svg xmlns="http://www.w3.org/2000/svg" version="1.1" xmlns:xlink="http://www.w3.org/1999/xlink" xmlns:svgjs="http://svgjs.dev/svgjs" preserveAspectRatio="none" viewBox="0 0 1440 560">
    <g mask="url(&quot;#SvgjsMask1004&quot;)" fill="none">
        <rect width="1440" height="560" x="0" y="0" fill="#0e2a47"></rect>
        <path d="M-96.38 395.43L-96.38 395.43" stroke="#132e65" stroke-width="1.5"></path>
        <path d="M-96.38 395.43L-104.19 506.71" stroke="#132e65" stroke-width="1.5"></path>
        <path d="M-96.38 395.43L38.68 516.5" stroke="#132e65" stroke-width="1.5"></path>
        <path d="M-104.19 506.71L-104.19 506.71" stroke="#132e65" stroke-width="1.5"></path>
        <path d="M-104.19 506.71L38.68 516.5" stroke="#132e65" stroke-width="1.5"></path>
        <path d="M-92.91 677.29L-92.91 677.29" stroke="#132e65" stroke-width="1.5"></path>
        <path d="M-92.91 677.29L-104.19 506.71" stroke="#132e65" stroke-width="1.5"></path>
        <path d="M82.87 365.34L82.87 365.34" stroke="#132e65" stroke-width="1.5"></path>
        <path d="M82.87 365.34L38.68 516.5" stroke="#132e65" stroke-width="1.5"></path>
        <path d="M82.87 365.34L239.76 398.9" stroke="#132e65" stroke-width="1.5"></path>
        <path d="M38.68 516.5L38.68 516.5" stroke="#132e65" stroke-width="1.5"></path>
        <path d="M107.94 704.34L107.94 704.34" stroke="#132e65" stroke-width="1.5"></path>
        <path d="M107.94 704.34L219.38 694.48" stroke="#132e65" stroke-width="1.5"></path>
        <path d="M107.94 704.34L38.68 516.5" stroke="#132e65" stroke-width="1.5"></path>
        <path d="M107.94 704.34L-92.91 677.29" stroke="#132e65" stroke-width="1.5"></path>
        <path d="M107.94 704.34L251.54 542.24" stroke="#132e65" stroke-width="1.5"></path>
        <path d="M107.94 704.34L-104.19 506.71" stroke="#132e65" stroke-width="1.5"></path>
        <path d="M107.94 704.34L402.98 702.52" stroke="#132e65" stroke-width="1.5"></path>
        <path d="M239.76 398.9L239.76 398.9" stroke="#132e65" stroke-width="1.5"></path>
        <path d="M239.76 398.9L363.68 401.93" stroke="#132e65" stroke-width="1.5"></path>
        <path d="M239.76 398.9L251.54 542.24" stroke="#132e65" stroke-width="1.5"></path>
        <path d="M239.76 398.9L402.35 523.76" stroke="#132e65" stroke-width="1.5"></path>
        <path d="M251.54 542.24L251.54 542.24" stroke="#132e65" stroke-width="1.5"></path>
        <path d="M251.54 542.24L402.35 523.76" stroke="#132e65" stroke-width="1.5"></path>
        <path d="M251.54 542.24L219.38 694.48" stroke="#132e65" stroke-width="1.5"></path>
        <path d="M251.54 542.24L363.68 401.93" stroke="#132e65" stroke-width="1.5"></path>
        <path d="M251.54 542.24L38.68 516.5" stroke="#132e65" stroke-width="1.5"></path>
        <path d="M219.38 694.48L219.38 694.48" stroke="#132e65" stroke-width="1.5"></path>
        <path d="M219.38 694.48L402.98 702.52" stroke="#132e65" stroke-width="1.5"></path>
        <path d="M363.68 401.93L363.68 401.93" stroke="#132e65" stroke-width="1.5"></path>
        <path d="M363.68 401.93L402.35 523.76" stroke="#132e65" stroke-width="1.5"></path>
        <path d="M402.35 523.76L402.35 523.76" stroke="#132e65" stroke-width="1.5"></path>
        <path d="M402.35 523.76L503.35 498.15" stroke="#132e65" stroke-width="1.5"></path>
        <path d="M402.35 523.76L402.98 702.52" stroke="#132e65" stroke-width="1.5"></path>
        <path d="M402.98 702.52L402.98 702.52" stroke="#132e65" stroke-width="1.5"></path>
        <path d="M402.98 702.52L517.52 706.34" stroke="#132e65" stroke-width="1.5"></path>
        <path d="M402.98 702.52L251.54 542.24" stroke="#132e65" stroke-width="1.5"></path>
        <path d="M503.35 498.15L503.35 498.15" stroke="#132e65" stroke-width="1.5"></path>
        <path d="M503.35 498.15L363.68 401.93" stroke="#132e65" stroke-width="1.5"></path>
        <path d="M517.52 706.34L517.52 706.34" stroke="#132e65" stroke-width="1.5"></path>
        <path d="M517.52 706.34L690.35 651.18" stroke="#132e65" stroke-width="1.5"></path>
        <path d="M517.52 706.34L503.35 498.15" stroke="#132e65" stroke-width="1.5"></path>
        <path d="M685.34 381.17L685.34 381.17" stroke="#132e65" stroke-width="1.5"></path>
        <path d="M685.34 381.17L799.87 410.19" stroke="#132e65" stroke-width="1.5"></path>
        <path d="M685.34 381.17L710.19 513.37" stroke="#132e65" stroke-width="1.5"></path>
        <path d="M710.19 513.37L710.19 513.37" stroke="#132e65" stroke-width="1.5"></path>
        <path d="M710.19 513.37L799.87 410.19" stroke="#132e65" stroke-width="1.5"></path>
        <path d="M690.35 651.18L690.35 651.18" stroke="#132e65" stroke-width="1.5"></path>
        <path d="M690.35 651.18L710.19 513.37" stroke="#132e65" stroke-width="1.5"></path>
        <path d="M690.35 651.18L845.8 705.82" stroke="#132e65" stroke-width="1.5"></path>
        <path d="M861.24 262.39L861.24 262.39" stroke="#132e65" stroke-width="1.5"></path>
        <path d="M861.24 262.39L1003.94 252.08" stroke="#132e65" stroke-width="1.5"></path>
        <path d="M861.24 262.39L799.87 410.19" stroke="#132e65" stroke-width="1.5"></path>
        <path d="M861.24 262.39L1008.43 370.14" stroke="#132e65" stroke-width="1.5"></path>
        <path d="M861.24 262.39L985.78 101.86" stroke="#132e65" stroke-width="1.5"></path>
        <path d="M799.87 410.19L799.87 410.19" stroke="#132e65" stroke-width="1.5"></path>
        <path d="M799.87 410.19L1008.43 370.14" stroke="#132e65" stroke-width="1.5"></path>
        <path d="M799.87 410.19L952.49 558.03" stroke="#132e65" stroke-width="1.5"></path>
        <path d="M845.8 705.82L845.8 705.82" stroke="#132e65" stroke-width="1.5"></path>
        <path d="M845.8 705.82L996 685.85" stroke="#132e65" stroke-width="1.5"></path>
        <path d="M845.8 705.82L952.49 558.03" stroke="#132e65" stroke-width="1.5"></path>
        <path d="M845.8 705.82L710.19 513.37" stroke="#132e65" stroke-width="1.5"></path>
        <path d="M951.46 -55.52L951.46 -55.52" stroke="#132e65" stroke-width="1.5"></path>
        <path d="M951.46 -55.52L1088.1 -96.73" stroke="#132e65" stroke-width="1.5"></path>
        <path d="M951.46 -55.52L985.78 101.86" stroke="#132e65" stroke-width="1.5"></path>
        <path d="M951.46 -55.52L1089.62 61.58" stroke="#132e65" stroke-width="1.5"></path>
        <path d="M951.46 -55.52L1003.94 252.08" stroke="#132e65" stroke-width="1.5"></path>
        <path d="M951.46 -55.52L1087.5 232.35" stroke="#132e65" stroke-width="1.5"></path>
        <path d="M951.46 -55.52L1279.64 -43.07" stroke="#132e65" stroke-width="1.5"></path>
        <path d="M985.78 101.86L985.78 101.86" stroke="#132e65" stroke-width="1.5"></path>
        <path d="M985.78 101.86L1089.62 61.58" stroke="#132e65" stroke-width="1.5"></path>
        <path d="M985.78 101.86L1003.94 252.08" stroke="#132e65" stroke-width="1.5"></path>
        <path d="M985.78 101.86L1087.5 232.35" stroke="#132e65" stroke-width="1.5"></path>
        <path d="M1003.94 252.08L1003.94 252.08" stroke="#132e65" stroke-width="1.5"></path>
        <path d="M1003.94 252.08L1087.5 232.35" stroke="#132e65" stroke-width="1.5"></path>
        <path d="M1003.94 252.08L1008.43 370.14" stroke="#132e65" stroke-width="1.5"></path>
        <path d="M1008.43 370.14L1008.43 370.14" stroke="#132e65" stroke-width="1.5"></path>
        <path d="M1008.43 370.14L1152.88 347.96" stroke="#132e65" stroke-width="1.5"></path>
        <path d="M1008.43 370.14L1087.5 232.35" stroke="#132e65" stroke-width="1.5"></path>
        <path d="M1008.43 370.14L1104.79 496.86" stroke="#132e65" stroke-width="1.5"></path>
        <path d="M952.49 558.03L952.49 558.03" stroke="#132e65" stroke-width="1.5"></path>
        <path d="M952.49 558.03L996 685.85" stroke="#132e65" stroke-width="1.5"></path>
        <path d="M952.49 558.03L1104.79 496.86" stroke="#132e65" stroke-width="1.5"></path>
        <path d="M952.49 558.03L1008.43 370.14" stroke="#132e65" stroke-width="1.5"></path>
        <path d="M996 685.85L996 685.85" stroke="#132e65" stroke-width="1.5"></path>
        <path d="M996 685.85L1138.88 671.36" stroke="#132e65" stroke-width="1.5"></path>
        <path d="M1088.1 -96.73L1088.1 -96.73" stroke="#132e65" stroke-width="1.5"></path>
        <path d="M1088.1 -96.73L1089.62 61.58" stroke="#132e65" stroke-width="1.5"></path>
        <path d="M1088.1 -96.73L1279.64 -43.07" stroke="#132e65" stroke-width="1.5"></path>
        <path d="M1088.1 -96.73L985.78 101.86" stroke="#132e65" stroke-width="1.5"></path>
        <path d="M1089.62 61.58L1089.62 61.58" stroke="#132e65" stroke-width="1.5"></path>
        <path d="M1087.5 232.35L1087.5 232.35" stroke="#132e65" stroke-width="1.5"></path>
        <path d="M1087.5 232.35L1152.88 347.96" stroke="#132e65" stroke-width="1.5"></path>
        <path d="M1152.88 347.96L1152.88 347.96" stroke="#132e65" stroke-width="1.5"></path>
        <path d="M1152.88 347.96L1278.66 411.06" stroke="#132e65" stroke-width="1.5"></path>
        <path d="M1152.88 347.96L1104.79 496.86" stroke="#132e65" stroke-width="1.5"></path>
        <path d="M1152.88 347.96L1280.79 233.13" stroke="#132e65" stroke-width="1.5"></path>
        <path d="M1152.88 347.96L1003.94 252.08" stroke="#132e65" stroke-width="1.5"></path>
        <path d="M1104.79 496.86L1104.79 496.86" stroke="#132e65" stroke-width="1.5"></path>
        <path d="M1104.79 496.86L1253.16 548.44" stroke="#132e65" stroke-width="1.5"></path>
        <path d="M1138.88 671.36L1138.88 671.36" stroke="#132e65" stroke-width="1.5"></path>
        <path d="M1138.88 671.36L1246.16 699.02" stroke="#132e65" stroke-width="1.5"></path>
        <path d="M1138.88 671.36L1253.16 548.44" stroke="#132e65" stroke-width="1.5"></path>
        <path d="M1138.88 671.36L1104.79 496.86" stroke="#132e65" stroke-width="1.5"></path>
        <path d="M1138.88 671.36L952.49 558.03" stroke="#132e65" stroke-width="1.5"></path>
        <path d="M1279.64 -43.07L1279.64 -43.07" stroke="#132e65" stroke-width="1.5"></path>
        <path d="M1279.64 -43.07L1270.21 72.77" stroke="#132e65" stroke-width="1.5"></path>
        <path d="M1279.64 -43.07L1390.05 -100.43" stroke="#132e65" stroke-width="1.5"></path>
        <path d="M1270.21 72.77L1270.21 72.77" stroke="#132e65" stroke-width="1.5"></path>
        <path d="M1270.21 72.77L1280.79 233.13" stroke="#132e65" stroke-width="1.5"></path>
        <path d="M1270.21 72.77L1089.62 61.58" stroke="#132e65" stroke-width="1.5"></path>
        <path d="M1270.21 72.77L1458.19 111.54" stroke="#132e65" stroke-width="1.5"></path>
        <path d="M1270.21 72.77L1415.46 212.57" stroke="#132e65" stroke-width="1.5"></path>
        <path d="M1280.79 233.13L1280.79 233.13" stroke="#132e65" stroke-width="1.5"></path>
        <path d="M1280.79 233.13L1415.46 212.57" stroke="#132e65" stroke-width="1.5"></path>
        <path d="M1280.79 233.13L1396.25 365.78" stroke="#132e65" stroke-width="1.5"></path>
        <path d="M1278.66 411.06L1278.66 411.06" stroke="#132e65" stroke-width="1.5"></path>
        <path d="M1278.66 411.06L1396.25 365.78" stroke="#132e65" stroke-width="1.5"></path>
        <path d="M1278.66 411.06L1253.16 548.44" stroke="#132e65" stroke-width="1.5"></path>
        <path d="M1278.66 411.06L1430.01 488.49" stroke="#132e65" stroke-width="1.5"></path>
        <path d="M1278.66 411.06L1280.79 233.13" stroke="#132e65" stroke-width="1.5"></path>
        <path d="M1278.66 411.06L1104.79 496.86" stroke="#132e65" stroke-width="1.5"></path>
        <path d="M1253.16 548.44L1253.16 548.44" stroke="#132e65" stroke-width="1.5"></path>
        <path d="M1253.16 548.44L1246.16 699.02" stroke="#132e65" stroke-width="1.5"></path>
        <path d="M1253.16 548.44L1430.01 488.49" stroke="#132e65" stroke-width="1.5"></path>
        <path d="M1246.16 699.02L1246.16 699.02" stroke="#132e65" stroke-width="1.5"></path>
        <path d="M1246.16 699.02L1419.24 643.58" stroke="#132e65" stroke-width="1.5"></path>
        <path d="M1246.16 699.02L1104.79 496.86" stroke="#132e65" stroke-width="1.5"></path>
        <path d="M1246.16 699.02L996 685.85" stroke="#132e65" stroke-width="1.5"></path>
        <path d="M1390.05 -100.43L1390.05 -100.43" stroke="#132e65" stroke-width="1.5"></path>
        <path d="M1390.05 -100.43L1565.6 -101.5" stroke="#132e65" stroke-width="1.5"></path>
        <path d="M1390.05 -100.43L1270.21 72.77" stroke="#132e65" stroke-width="1.5"></path>
        <path d="M1458.19 111.54L1458.19 111.54" stroke="#132e65" stroke-width="1.5"></path>
        <path d="M1458.19 111.54L1415.46 212.57" stroke="#132e65" stroke-width="1.5"></path>
        <path d="M1458.19 111.54L1563.11 240.76" stroke="#132e65" stroke-width="1.5"></path>
        <path d="M1458.19 111.54L1280.79 233.13" stroke="#132e65" stroke-width="1.5"></path>
        <path d="M1458.19 111.54L1390.05 -100.43" stroke="#132e65" stroke-width="1.5"></path>
        <path d="M1458.19 111.54L1279.64 -43.07" stroke="#132e65" stroke-width="1.5"></path>
        <path d="M1415.46 212.57L1415.46 212.57" stroke="#132e65" stroke-width="1.5"></path>
        <path d="M1396.25 365.78L1396.25 365.78" stroke="#132e65" stroke-width="1.5"></path>
        <path d="M1396.25 365.78L1430.01 488.49" stroke="#132e65" stroke-width="1.5"></path>
        <path d="M1396.25 365.78L1415.46 212.57" stroke="#132e65" stroke-width="1.5"></path>
        <path d="M1396.25 365.78L1563.11 240.76" stroke="#132e65" stroke-width="1.5"></path>
        <path d="M1396.25 365.78L1253.16 548.44" stroke="#132e65" stroke-width="1.5"></path>
        <path d="M1430.01 488.49L1430.01 488.49" stroke="#132e65" stroke-width="1.5"></path>
        <path d="M1430.01 488.49L1560.41 541.67" stroke="#132e65" stroke-width="1.5"></path>
        <path d="M1419.24 643.58L1419.24 643.58" stroke="#132e65" stroke-width="1.5"></path>
        <path d="M1419.24 643.58L1542.93 654.07" stroke="#132e65" stroke-width="1.5"></path>
        <path d="M1419.24 643.58L1430.01 488.49" stroke="#132e65" stroke-width="1.5"></path>
        <path d="M1565.6 -101.5L1565.6 -101.5" stroke="#132e65" stroke-width="1.5"></path>
        <path d="M1565.6 -101.5L1458.19 111.54" stroke="#132e65" stroke-width="1.5"></path>
        <path d="M1565.6 -101.5L1279.64 -43.07" stroke="#132e65" stroke-width="1.5"></path>
        <path d="M1565.6 -101.5L1563.11 240.76" stroke="#132e65" stroke-width="1.5"></path>
        <path d="M1563.11 240.76L1563.11 240.76" stroke="#132e65" stroke-width="1.5"></path>
        <path d="M1563.11 240.76L1415.46 212.57" stroke="#132e65" stroke-width="1.5"></path>
        <path d="M1563.11 240.76L1430.01 488.49" stroke="#132e65" stroke-width="1.5"></path>
        <path d="M1560.41 541.67L1560.41 541.67" stroke="#132e65" stroke-width="1.5"></path>
        <path d="M1560.41 541.67L1542.93 654.07" stroke="#132e65" stroke-width="1.5"></path>
        <path d="M1542.93 654.07L1542.93 654.07" stroke="#132e65" stroke-width="1.5"></path>
        <circle r="5" cx="-96.38" cy="395.43" fill="#132e65"></circle>
        <circle r="5" cx="-104.19" cy="506.71" fill="#132e65"></circle>
        <circle r="5" cx="-92.91" cy="677.29" fill="#132e65"></circle>
        <circle r="5" cx="82.87" cy="365.34" fill="#132e65"></circle>
        <circle r="5" cx="38.68" cy="516.5" fill="#132e65"></circle>
        <circle r="5" cx="107.94" cy="704.34" fill="#132e65"></circle>
        <circle r="5" cx="239.76" cy="398.9" fill="#132e65"></circle>
        <circle r="5" cx="251.54" cy="542.24" fill="#132e65"></circle>
        <circle r="5" cx="219.38" cy="694.48" fill="#132e65"></circle>
        <circle r="5" cx="363.68" cy="401.93" fill="#132e65"></circle>
        <circle r="5" cx="402.35" cy="523.76" fill="#132e65"></circle>
        <circle r="5" cx="402.98" cy="702.52" fill="#132e65"></circle>
        <circle r="5" cx="503.35" cy="498.15" fill="#132e65"></circle>
        <circle r="5" cx="517.52" cy="706.34" fill="#132e65"></circle>
        <circle r="5" cx="685.34" cy="381.17" fill="#132e65"></circle>
        <circle r="5" cx="710.19" cy="513.37" fill="#132e65"></circle>
        <circle r="5" cx="690.35" cy="651.18" fill="#132e65"></circle>
        <circle r="5" cx="861.24" cy="262.39" fill="#132e65"></circle>
        <circle r="5" cx="799.87" cy="410.19" fill="#132e65"></circle>
        <circle r="5" cx="845.8" cy="705.82" fill="#132e65"></circle>
        <circle r="5" cx="951.46" cy="-55.52" fill="#132e65"></circle>
        <circle r="5" cx="985.78" cy="101.86" fill="#132e65"></circle>
        <circle r="5" cx="1003.94" cy="252.08" fill="#132e65"></circle>
        <circle r="5" cx="1008.43" cy="370.14" fill="#132e65"></circle>
        <circle r="5" cx="952.49" cy="558.03" fill="#132e65"></circle>
        <circle r="5" cx="996" cy="685.85" fill="#132e65"></circle>
        <circle r="5" cx="1088.1" cy="-96.73" fill="#132e65"></circle>
        <circle r="5" cx="1089.62" cy="61.58" fill="#132e65"></circle>
        <circle r="5" cx="1087.5" cy="232.35" fill="#132e65"></circle>
        <circle r="5" cx="1152.88" cy="347.96" fill="#132e65"></circle>
        <circle r="5" cx="1104.79" cy="496.86" fill="#132e65"></circle>
        <circle r="5" cx="1138.88" cy="671.36" fill="#132e65"></circle>
        <circle r="5" cx="1279.64" cy="-43.07" fill="#132e65"></circle>
        <circle r="5" cx="1270.21" cy="72.77" fill="#132e65"></circle>
        <circle r="5" cx="1280.79" cy="233.13" fill="#132e65"></circle>
        <circle r="5" cx="1278.66" cy="411.06" fill="#132e65"></circle>
        <circle r="5" cx="1253.16" cy="548.44" fill="#132e65"></circle>
        <circle r="5" cx="1246.16" cy="699.02" fill="#132e65"></circle>
        <circle r="5" cx="1390.05" cy="-100.43" fill="#132e65"></circle>
        <circle r="5" cx="1458.19" cy="111.54" fill="#132e65"></circle>
        <circle r="5" cx="1415.46" cy="212.57" fill="#132e65"></circle>
        <circle r="5" cx="1396.25" cy="365.78" fill="#132e65"></circle>
        <circle r="5" cx="1430.01" cy="488.49" fill="#132e65"></circle>
        <circle r="5" cx="1419.24" cy="643.58" fill="#132e65"></circle>
        <circle r="5" cx="1565.6" cy="-101.5" fill="#132e65"></circle>
        <circle r="5" cx="1563.11" cy="240.76" fill="#132e65"></circle>
        <circle r="5" cx="1560.41" cy="541.67" fill="#132e65"></circle>
        <circle r="5" cx="1542.93" cy="654.07" fill="#132e65"></circle>
        <path d="M-80.01 535.58L-80.01 535.58" stroke="hsl(228.5, 77.2%, 51.5%)" stroke-width="1.5"></path>
        <path d="M-80.01 535.58L42.01 541.08" stroke="hsl(228.5, 77.2%, 51.5%)" stroke-width="1.5"></path>
        <path d="M-80.01 535.58L-58.15 695.09" stroke="hsl(228.5, 77.2%, 51.5%)" stroke-width="1.5"></path>
        <path d="M-80.01 535.58L109.61 647.46" stroke="hsl(228.5, 77.2%, 51.5%)" stroke-width="1.5"></path>
        <path d="M42.01 541.08L42.01 541.08" stroke="hsl(228.5, 77.2%, 51.5%)" stroke-width="1.5"></path>
        <path d="M42.01 541.08L109.61 647.46" stroke="hsl(228.5, 77.2%, 51.5%)" stroke-width="1.5"></path>
        <path d="M42.01 541.08L-58.15 695.09" stroke="hsl(228.5, 77.2%, 51.5%)" stroke-width="1.5"></path>
        <path d="M42.01 541.08L225.52 501.8" stroke="hsl(228.5, 77.2%, 51.5%)" stroke-width="1.5"></path>
        <path d="M42.01 541.08L204.64 666.23" stroke="hsl(228.5, 77.2%, 51.5%)" stroke-width="1.5"></path>
        <path d="M806.23 644.42L806.23 644.42" stroke="hsl(228.5, 77.2%, 51.5%)" stroke-width="1.5"></path>
        <path d="M806.23 644.42L679.09 643.82" stroke="hsl(228.5, 77.2%, 51.5%)" stroke-width="1.5"></path>
        <path d="M806.23 644.42L833.53 493.65" stroke="hsl(228.5, 77.2%, 51.5%)" stroke-width="1.5"></path>
        <path d="M806.23 644.42L997.51 651.32" stroke="hsl(228.5, 77.2%, 51.5%)" stroke-width="1.5"></path>
        <path d="M806.23 644.42L941.65 494.9" stroke="hsl(228.5, 77.2%, 51.5%)" stroke-width="1.5"></path>
        <path d="M806.23 644.42L830.93 366.75" stroke="hsl(228.5, 77.2%, 51.5%)" stroke-width="1.5"></path>
        <path d="M806.23 644.42L676.66 381.55" stroke="hsl(228.5, 77.2%, 51.5%)" stroke-width="1.5"></path>
        <path d="M1395.49 88.22L1395.49 88.22" stroke="hsl(228.5, 77.2%, 51.5%)" stroke-width="1.5"></path>
        <path d="M1395.49 88.22L1297.33 38.03" stroke="hsl(228.5, 77.2%, 51.5%)" stroke-width="1.5"></path>
        <path d="M1395.49 88.22L1423.93 198.16" stroke="hsl(228.5, 77.2%, 51.5%)" stroke-width="1.5"></path>
        <path d="M1395.49 88.22L1570.9 54.18" stroke="hsl(228.5, 77.2%, 51.5%)" stroke-width="1.5"></path>
        <path d="M1395.49 88.22L1559.12 189.88" stroke="hsl(228.5, 77.2%, 51.5%)" stroke-width="1.5"></path>
        <path d="M1395.49 88.22L1248.18 213.5" stroke="hsl(228.5, 77.2%, 51.5%)" stroke-width="1.5"></path>
        <path d="M1581.35 -47.07L1581.35 -47.07" stroke="hsl(228.5, 77.2%, 51.5%)" stroke-width="1.5"></path>
        <path d="M1581.35 -47.07L1570.9 54.18" stroke="hsl(228.5, 77.2%, 51.5%)" stroke-width="1.5"></path>
        <path d="M1581.35 -47.07L1417.26 -105.09" stroke="hsl(228.5, 77.2%, 51.5%)" stroke-width="1.5"></path>
        <path d="M1581.35 -47.07L1395.49 88.22" stroke="hsl(228.5, 77.2%, 51.5%)" stroke-width="1.5"></path>
        <path d="M1570.9 54.18L1570.9 54.18" stroke="hsl(228.5, 77.2%, 51.5%)" stroke-width="1.5"></path>
        <path d="M1570.9 54.18L1559.12 189.88" stroke="hsl(228.5, 77.2%, 51.5%)" stroke-width="1.5"></path>
        <path d="M1570.9 54.18L1423.93 198.16" stroke="hsl(228.5, 77.2%, 51.5%)" stroke-width="1.5"></path>
        <path d="M1570.9 54.18L1417.26 -105.09" stroke="hsl(228.5, 77.2%, 51.5%)" stroke-width="1.5"></path>
        <path d="M1570.9 54.18L1297.33 38.03" stroke="hsl(228.5, 77.2%, 51.5%)" stroke-width="1.5"></path>
        <path d="M-58.15 695.09L-58.15 695.09" stroke="hsl(228.5, 77.2%, 51.5%)" stroke-width="1.5"></path>
        <path d="M-58.15 695.09L109.61 647.46" stroke="hsl(228.5, 77.2%, 51.5%)" stroke-width="1.5"></path>
        <path d="M-58.15 695.09L204.64 666.23" stroke="hsl(228.5, 77.2%, 51.5%)" stroke-width="1.5"></path>
        <path d="M-58.15 695.09L225.52 501.8" stroke="hsl(228.5, 77.2%, 51.5%)" stroke-width="1.5"></path>
        <path d="M109.61 647.46L109.61 647.46" stroke="hsl(228.5, 77.2%, 51.5%)" stroke-width="1.5"></path>
        <path d="M109.61 647.46L204.64 666.23" stroke="hsl(228.5, 77.2%, 51.5%)" stroke-width="1.5"></path>
        <path d="M109.61 647.46L225.52 501.8" stroke="hsl(228.5, 77.2%, 51.5%)" stroke-width="1.5"></path>
        <path d="M225.52 501.8L225.52 501.8" stroke="hsl(228.5, 77.2%, 51.5%)" stroke-width="1.5"></path>
        <path d="M225.52 501.8L204.64 666.23" stroke="hsl(228.5, 77.2%, 51.5%)" stroke-width="1.5"></path>
        <path d="M225.52 501.8L397.91 521.44" stroke="hsl(228.5, 77.2%, 51.5%)" stroke-width="1.5"></path>
        <path d="M204.64 666.23L204.64 666.23" stroke="hsl(228.5, 77.2%, 51.5%)" stroke-width="1.5"></path>
        <path d="M204.64 666.23L390.02 678.52" stroke="hsl(228.5, 77.2%, 51.5%)" stroke-width="1.5"></path>
        <path d="M204.64 666.23L397.91 521.44" stroke="hsl(228.5, 77.2%, 51.5%)" stroke-width="1.5"></path>
        <path d="M397.91 521.44L397.91 521.44" stroke="hsl(228.5, 77.2%, 51.5%)" stroke-width="1.5"></path>
        <path d="M397.91 521.44L512.72 491.14" stroke="hsl(228.5, 77.2%, 51.5%)" stroke-width="1.5"></path>
        <path d="M397.91 521.44L390.02 678.52" stroke="hsl(228.5, 77.2%, 51.5%)" stroke-width="1.5"></path>
        <path d="M390.02 678.52L390.02 678.52" stroke="hsl(228.5, 77.2%, 51.5%)" stroke-width="1.5"></path>
        <path d="M390.02 678.52L512.01 657.49" stroke="hsl(228.5, 77.2%, 51.5%)" stroke-width="1.5"></path>
        <path d="M390.02 678.52L512.72 491.14" stroke="hsl(228.5, 77.2%, 51.5%)" stroke-width="1.5"></path>
        <path d="M390.02 678.52L225.52 501.8" stroke="hsl(228.5, 77.2%, 51.5%)" stroke-width="1.5"></path>
        <path d="M514.85 401.31L514.85 401.31" stroke="hsl(228.5, 77.2%, 51.5%)" stroke-width="1.5"></path>
        <path d="M514.85 401.31L512.72 491.14" stroke="hsl(228.5, 77.2%, 51.5%)" stroke-width="1.5"></path>
        <path d="M514.85 401.31L676.66 381.55" stroke="hsl(228.5, 77.2%, 51.5%)" stroke-width="1.5"></path>
        <path d="M514.85 401.31L397.91 521.44" stroke="hsl(228.5, 77.2%, 51.5%)" stroke-width="1.5"></path>
        <path d="M514.85 401.31L512.01 657.49" stroke="hsl(228.5, 77.2%, 51.5%)" stroke-width="1.5"></path>
        <path d="M514.85 401.31L679.09 643.82" stroke="hsl(228.5, 77.2%, 51.5%)" stroke-width="1.5"></path>
        <path d="M514.85 401.31L390.02 678.52" stroke="hsl(228.5, 77.2%, 51.5%)" stroke-width="1.5"></path>
        <path d="M512.72 491.14L512.72 491.14" stroke="hsl(228.5, 77.2%, 51.5%)" stroke-width="1.5"></path>
        <path d="M512.72 491.14L512.01 657.49" stroke="hsl(228.5, 77.2%, 51.5%)" stroke-width="1.5"></path>
        <path d="M512.72 491.14L676.66 381.55" stroke="hsl(228.5, 77.2%, 51.5%)" stroke-width="1.5"></path>
        <path d="M512.01 657.49L512.01 657.49" stroke="hsl(228.5, 77.2%, 51.5%)" stroke-width="1.5"></path>
        <path d="M512.01 657.49L679.09 643.82" stroke="hsl(228.5, 77.2%, 51.5%)" stroke-width="1.5"></path>
        <path d="M512.01 657.49L397.91 521.44" stroke="hsl(228.5, 77.2%, 51.5%)" stroke-width="1.5"></path>
        <path d="M676.66 381.55L676.66 381.55" stroke="hsl(228.5, 77.2%, 51.5%)" stroke-width="1.5"></path>
        <path d="M676.66 381.55L830.93 366.75" stroke="hsl(228.5, 77.2%, 51.5%)" stroke-width="1.5"></path>
        <path d="M676.66 381.55L833.53 493.65" stroke="hsl(228.5, 77.2%, 51.5%)" stroke-width="1.5"></path>
        <path d="M679.09 643.82L679.09 643.82" stroke="hsl(228.5, 77.2%, 51.5%)" stroke-width="1.5"></path>
        <path d="M679.09 643.82L833.53 493.65" stroke="hsl(228.5, 77.2%, 51.5%)" stroke-width="1.5"></path>
        <path d="M679.09 643.82L512.72 491.14" stroke="hsl(228.5, 77.2%, 51.5%)" stroke-width="1.5"></path>
        <path d="M830.93 366.75L830.93 366.75" stroke="hsl(228.5, 77.2%, 51.5%)" stroke-width="1.5"></path>
        <path d="M830.93 366.75L948.07 344.26" stroke="hsl(228.5, 77.2%, 51.5%)" stroke-width="1.5"></path>
        <path d="M830.93 366.75L833.53 493.65" stroke="hsl(228.5, 77.2%, 51.5%)" stroke-width="1.5"></path>
        <path d="M830.93 366.75L941.65 494.9" stroke="hsl(228.5, 77.2%, 51.5%)" stroke-width="1.5"></path>
        <path d="M830.93 366.75L1103.02 368.18" stroke="hsl(228.5, 77.2%, 51.5%)" stroke-width="1.5"></path>
        <path d="M833.53 493.65L833.53 493.65" stroke="hsl(228.5, 77.2%, 51.5%)" stroke-width="1.5"></path>
        <path d="M833.53 493.65L941.65 494.9" stroke="hsl(228.5, 77.2%, 51.5%)" stroke-width="1.5"></path>
        <path d="M833.53 493.65L948.07 344.26" stroke="hsl(228.5, 77.2%, 51.5%)" stroke-width="1.5"></path>
        <path d="M948.07 344.26L948.07 344.26" stroke="hsl(228.5, 77.2%, 51.5%)" stroke-width="1.5"></path>
        <path d="M948.07 344.26L941.65 494.9" stroke="hsl(228.5, 77.2%, 51.5%)" stroke-width="1.5"></path>
        <path d="M948.07 344.26L1103.02 368.18" stroke="hsl(228.5, 77.2%, 51.5%)" stroke-width="1.5"></path>
        <path d="M941.65 494.9L941.65 494.9" stroke="hsl(228.5, 77.2%, 51.5%)" stroke-width="1.5"></path>
        <path d="M941.65 494.9L997.51 651.32" stroke="hsl(228.5, 77.2%, 51.5%)" stroke-width="1.5"></path>
        <path d="M941.65 494.9L1103.02 368.18" stroke="hsl(228.5, 77.2%, 51.5%)" stroke-width="1.5"></path>
        <path d="M997.51 651.32L997.51 651.32" stroke="hsl(228.5, 77.2%, 51.5%)" stroke-width="1.5"></path>
        <path d="M997.51 651.32L1124.95 651.15" stroke="hsl(228.5, 77.2%, 51.5%)" stroke-width="1.5"></path>
        <path d="M1155.8 81.51L1155.8 81.51" stroke="hsl(228.5, 77.2%, 51.5%)" stroke-width="1.5"></path>
        <path d="M1155.8 81.51L1297.33 38.03" stroke="hsl(228.5, 77.2%, 51.5%)" stroke-width="1.5"></path>
        <path d="M1155.8 81.51L1248.18 213.5" stroke="hsl(228.5, 77.2%, 51.5%)" stroke-width="1.5"></path>
        <path d="M1155.8 81.51L1133.3 243.51" stroke="hsl(228.5, 77.2%, 51.5%)" stroke-width="1.5"></path>
        <path d="M1133.3 243.51L1133.3 243.51" stroke="hsl(228.5, 77.2%, 51.5%)" stroke-width="1.5"></path>
        <path d="M1133.3 243.51L1248.18 213.5" stroke="hsl(228.5, 77.2%, 51.5%)" stroke-width="1.5"></path>
        <path d="M1133.3 243.51L1103.02 368.18" stroke="hsl(228.5, 77.2%, 51.5%)" stroke-width="1.5"></path>
        <path d="M1133.3 243.51L1250.32 363.83" stroke="hsl(228.5, 77.2%, 51.5%)" stroke-width="1.5"></path>
        <path d="M1133.3 243.51L948.07 344.26" stroke="hsl(228.5, 77.2%, 51.5%)" stroke-width="1.5"></path>
        <path d="M1133.3 243.51L1297.33 38.03" stroke="hsl(228.5, 77.2%, 51.5%)" stroke-width="1.5"></path>
        <path d="M1103.02 368.18L1103.02 368.18" stroke="hsl(228.5, 77.2%, 51.5%)" stroke-width="1.5"></path>
        <path d="M1103.02 368.18L1250.32 363.83" stroke="hsl(228.5, 77.2%, 51.5%)" stroke-width="1.5"></path>
        <path d="M1103.02 368.18L1148.32 558.02" stroke="hsl(228.5, 77.2%, 51.5%)" stroke-width="1.5"></path>
        <path d="M1103.02 368.18L1244.23 525.97" stroke="hsl(228.5, 77.2%, 51.5%)" stroke-width="1.5"></path>
        <path d="M1148.32 558.02L1148.32 558.02" stroke="hsl(228.5, 77.2%, 51.5%)" stroke-width="1.5"></path>
        <path d="M1148.32 558.02L1124.95 651.15" stroke="hsl(228.5, 77.2%, 51.5%)" stroke-width="1.5"></path>
        <path d="M1148.32 558.02L1244.23 525.97" stroke="hsl(228.5, 77.2%, 51.5%)" stroke-width="1.5"></path>
        <path d="M1148.32 558.02L997.51 651.32" stroke="hsl(228.5, 77.2%, 51.5%)" stroke-width="1.5"></path>
        <path d="M1124.95 651.15L1124.95 651.15" stroke="hsl(228.5, 77.2%, 51.5%)" stroke-width="1.5"></path>
        <path d="M1124.95 651.15L1244.23 525.97" stroke="hsl(228.5, 77.2%, 51.5%)" stroke-width="1.5"></path>
        <path d="M1124.95 651.15L1299.5 653.98" stroke="hsl(228.5, 77.2%, 51.5%)" stroke-width="1.5"></path>
        <path d="M1124.95 651.15L941.65 494.9" stroke="hsl(228.5, 77.2%, 51.5%)" stroke-width="1.5"></path>
        <path d="M1124.95 651.15L1103.02 368.18" stroke="hsl(228.5, 77.2%, 51.5%)" stroke-width="1.5"></path>
        <path d="M1242.19 -66.54L1242.19 -66.54" stroke="hsl(228.5, 77.2%, 51.5%)" stroke-width="1.5"></path>
        <path d="M1242.19 -66.54L1297.33 38.03" stroke="hsl(228.5, 77.2%, 51.5%)" stroke-width="1.5"></path>
        <path d="M1242.19 -66.54L1155.8 81.51" stroke="hsl(228.5, 77.2%, 51.5%)" stroke-width="1.5"></path>
        <path d="M1242.19 -66.54L1417.26 -105.09" stroke="hsl(228.5, 77.2%, 51.5%)" stroke-width="1.5"></path>
        <path d="M1242.19 -66.54L1395.49 88.22" stroke="hsl(228.5, 77.2%, 51.5%)" stroke-width="1.5"></path>
        <path d="M1297.33 38.03L1297.33 38.03" stroke="hsl(228.5, 77.2%, 51.5%)" stroke-width="1.5"></path>
        <path d="M1297.33 38.03L1248.18 213.5" stroke="hsl(228.5, 77.2%, 51.5%)" stroke-width="1.5"></path>
        <path d="M1248.18 213.5L1248.18 213.5" stroke="hsl(228.5, 77.2%, 51.5%)" stroke-width="1.5"></path>
        <path d="M1248.18 213.5L1250.32 363.83" stroke="hsl(228.5, 77.2%, 51.5%)" stroke-width="1.5"></path>
        <path d="M1248.18 213.5L1423.93 198.16" stroke="hsl(228.5, 77.2%, 51.5%)" stroke-width="1.5"></path>
        <path d="M1250.32 363.83L1250.32 363.83" stroke="hsl(228.5, 77.2%, 51.5%)" stroke-width="1.5"></path>
        <path d="M1250.32 363.83L1244.23 525.97" stroke="hsl(228.5, 77.2%, 51.5%)" stroke-width="1.5"></path>
        <path d="M1244.23 525.97L1244.23 525.97" stroke="hsl(228.5, 77.2%, 51.5%)" stroke-width="1.5"></path>
        <path d="M1244.23 525.97L1299.5 653.98" stroke="hsl(228.5, 77.2%, 51.5%)" stroke-width="1.5"></path>
        <path d="M1299.5 653.98L1299.5 653.98" stroke="hsl(228.5, 77.2%, 51.5%)" stroke-width="1.5"></path>
        <path d="M1299.5 653.98L1457.52 701.72" stroke="hsl(228.5, 77.2%, 51.5%)" stroke-width="1.5"></path>
        <path d="M1417.26 -105.09L1417.26 -105.09" stroke="hsl(228.5, 77.2%, 51.5%)" stroke-width="1.5"></path>
        <path d="M1423.93 198.16L1423.93 198.16" stroke="hsl(228.5, 77.2%, 51.5%)" stroke-width="1.5"></path>
        <path d="M1423.93 198.16L1559.12 189.88" stroke="hsl(228.5, 77.2%, 51.5%)" stroke-width="1.5"></path>
        <path d="M1423.93 198.16L1557.3 339.56" stroke="hsl(228.5, 77.2%, 51.5%)" stroke-width="1.5"></path>
        <path d="M1434.31 404.14L1434.31 404.14" stroke="hsl(228.5, 77.2%, 51.5%)" stroke-width="1.5"></path>
        <path d="M1434.31 404.14L1456.26 513.35" stroke="hsl(228.5, 77.2%, 51.5%)" stroke-width="1.5"></path>
        <path d="M1434.31 404.14L1557.3 339.56" stroke="hsl(228.5, 77.2%, 51.5%)" stroke-width="1.5"></path>
        <path d="M1434.31 404.14L1250.32 363.83" stroke="hsl(228.5, 77.2%, 51.5%)" stroke-width="1.5"></path>
        <path d="M1434.31 404.14L1559.79 550.34" stroke="hsl(228.5, 77.2%, 51.5%)" stroke-width="1.5"></path>
        <path d="M1434.31 404.14L1423.93 198.16" stroke="hsl(228.5, 77.2%, 51.5%)" stroke-width="1.5"></path>
        <path d="M1434.31 404.14L1244.23 525.97" stroke="hsl(228.5, 77.2%, 51.5%)" stroke-width="1.5"></path>
        <path d="M1456.26 513.35L1456.26 513.35" stroke="hsl(228.5, 77.2%, 51.5%)" stroke-width="1.5"></path>
        <path d="M1456.26 513.35L1559.79 550.34" stroke="hsl(228.5, 77.2%, 51.5%)" stroke-width="1.5"></path>
        <path d="M1457.52 701.72L1457.52 701.72" stroke="hsl(228.5, 77.2%, 51.5%)" stroke-width="1.5"></path>
        <path d="M1457.52 701.72L1581.01 651.72" stroke="hsl(228.5, 77.2%, 51.5%)" stroke-width="1.5"></path>
        <path d="M1457.52 701.72L1559.79 550.34" stroke="hsl(228.5, 77.2%, 51.5%)" stroke-width="1.5"></path>
        <path d="M1457.52 701.72L1456.26 513.35" stroke="hsl(228.5, 77.2%, 51.5%)" stroke-width="1.5"></path>
        <path d="M1457.52 701.72L1244.23 525.97" stroke="hsl(228.5, 77.2%, 51.5%)" stroke-width="1.5"></path>
        <path d="M1559.12 189.88L1559.12 189.88" stroke="hsl(228.5, 77.2%, 51.5%)" stroke-width="1.5"></path>
        <path d="M1559.12 189.88L1557.3 339.56" stroke="hsl(228.5, 77.2%, 51.5%)" stroke-width="1.5"></path>
        <path d="M1559.12 189.88L1581.35 -47.07" stroke="hsl(228.5, 77.2%, 51.5%)" stroke-width="1.5"></path>
        <path d="M1557.3 339.56L1557.3 339.56" stroke="hsl(228.5, 77.2%, 51.5%)" stroke-width="1.5"></path>
        <path d="M1559.79 550.34L1559.79 550.34" stroke="hsl(228.5, 77.2%, 51.5%)" stroke-width="1.5"></path>
        <path d="M1559.79 550.34L1581.01 651.72" stroke="hsl(228.5, 77.2%, 51.5%)" stroke-width="1.5"></path>
        <path d="M1581.01 651.72L1581.01 651.72" stroke="hsl(228.5, 77.2%, 51.5%)" stroke-width="1.5"></path>
        <path d="M1581.01 651.72L1456.26 513.35" stroke="hsl(228.5, 77.2%, 51.5%)" stroke-width="1.5"></path>
        <circle r="25" cx="-80.01" cy="535.58" fill="url(&quot;#SvgjsRadialGradient1005&quot;)"></circle>
        <circle r="25" cx="42.01" cy="541.08" fill="url(&quot;#SvgjsRadialGradient1005&quot;)"></circle>
        <circle r="25" cx="806.23" cy="644.42" fill="url(&quot;#SvgjsRadialGradient1005&quot;)"></circle>
        <circle r="25" cx="1395.49" cy="88.22" fill="url(&quot;#SvgjsRadialGradient1005&quot;)"></circle>
        <circle r="25" cx="1581.35" cy="-47.07" fill="url(&quot;#SvgjsRadialGradient1005&quot;)"></circle>
        <circle r="25" cx="1570.9" cy="54.18" fill="url(&quot;#SvgjsRadialGradient1005&quot;)"></circle>
        <circle r="5" cx="-58.15" cy="695.09" fill="#8b9ad9"></circle>
        <circle r="5" cx="109.61" cy="647.46" fill="#8b9ad9"></circle>
        <circle r="5" cx="225.52" cy="501.8" fill="#8b9ad9"></circle>
        <circle r="5" cx="204.64" cy="666.23" fill="#8b9ad9"></circle>
        <circle r="5" cx="397.91" cy="521.44" fill="#8b9ad9"></circle>
        <circle r="5" cx="390.02" cy="678.52" fill="#8b9ad9"></circle>
        <circle r="5" cx="514.85" cy="401.31" fill="#8b9ad9"></circle>
        <circle r="5" cx="512.72" cy="491.14" fill="#8b9ad9"></circle>
        <circle r="5" cx="512.01" cy="657.49" fill="#8b9ad9"></circle>
        <circle r="5" cx="676.66" cy="381.55" fill="#8b9ad9"></circle>
        <circle r="5" cx="679.09" cy="643.82" fill="#8b9ad9"></circle>
        <circle r="5" cx="830.93" cy="366.75" fill="#8b9ad9"></circle>
        <circle r="5" cx="833.53" cy="493.65" fill="#8b9ad9"></circle>
        <circle r="5" cx="948.07" cy="344.26" fill="#8b9ad9"></circle>
        <circle r="5" cx="941.65" cy="494.9" fill="#8b9ad9"></circle>
        <circle r="5" cx="997.51" cy="651.32" fill="#8b9ad9"></circle>
        <circle r="5" cx="1155.8" cy="81.51" fill="#8b9ad9"></circle>
        <circle r="5" cx="1133.3" cy="243.51" fill="#8b9ad9"></circle>
        <circle r="5" cx="1103.02" cy="368.18" fill="#8b9ad9"></circle>
        <circle r="5" cx="1148.32" cy="558.02" fill="#8b9ad9"></circle>
        <circle r="5" cx="1124.95" cy="651.15" fill="#8b9ad9"></circle>
        <circle r="5" cx="1242.19" cy="-66.54" fill="#8b9ad9"></circle>
        <circle r="5" cx="1297.33" cy="38.03" fill="#8b9ad9"></circle>
        <circle r="5" cx="1248.18" cy="213.5" fill="#8b9ad9"></circle>
        <circle r="5" cx="1250.32" cy="363.83" fill="#8b9ad9"></circle>
        <circle r="5" cx="1244.23" cy="525.97" fill="#8b9ad9"></circle>
        <circle r="5" cx="1299.5" cy="653.98" fill="#8b9ad9"></circle>
        <circle r="5" cx="1417.26" cy="-105.09" fill="#8b9ad9"></circle>
        <circle r="5" cx="1423.93" cy="198.16" fill="#8b9ad9"></circle>
        <circle r="5" cx="1434.31" cy="404.14" fill="#8b9ad9"></circle>
        <circle r="5" cx="1456.26" cy="513.35" fill="#8b9ad9"></circle>
        <circle r="5" cx="1457.52" cy="701.72" fill="#8b9ad9"></circle>
        <circle r="5" cx="1559.12" cy="189.88" fill="#8b9ad9"></circle>
        <circle r="5" cx="1557.3" cy="339.56" fill="#8b9ad9"></circle>
        <circle r="5" cx="1559.79" cy="550.34" fill="#8b9ad9"></circle>
        <circle r="5" cx="1581.01" cy="651.72" fill="#8b9ad9"></circle>
    </g>
    <defs>
        <mask id="SvgjsMask1004">
            <rect width="1440" height="560" fill="#ffffff"></rect>
        </mask>
        <radialGradient id="SvgjsRadialGradient1005">
            <stop stop-color="#ffffff" offset="0.1"></stop>
            <stop stop-color="#1735b3" offset="0.2"></stop>
            <stop stop-color="rgba(23, 53, 179, 0)" offset="1"></stop>
        </radialGradient>
    </defs>
</svg>